M48
; DRILL file {KiCad 9.0.5} date 2025-10-27T12:52:08+0100
; FORMAT={-:-/ absolute / metric / decimal}
; #@! TF.CreationDate,2025-10-27T12:52:08+01:00
; #@! TF.GenerationSoftware,Kicad,Pcbnew,9.0.5
; #@! TF.FileFunction,Plated,1,2,PTH
FMAT,2
METRIC
; #@! TA.AperFunction,Plated,PTH,ComponentDrill
T1C0.914
; #@! TA.AperFunction,Plated,PTH,ComponentDrill
T2C1.000
; #@! TA.AperFunction,Plated,PTH,ComponentDrill
T3C1.300
%
G90
G05
T1
X149.84Y-98.0
T2
X85.92Y-104.0
X85.92Y-136.5
X88.0Y-66.42
X88.0Y-68.96
X88.0Y-71.5
X88.0Y-74.04
X88.0Y-76.58
X88.46Y-104.0
X88.46Y-136.5
X91.0Y-104.0
X91.0Y-136.5
X91.25Y-88.0
X91.25Y-90.54
X91.25Y-93.08
X97.42Y-104.0
X97.42Y-136.5
X99.96Y-104.0
X99.96Y-136.5
X102.5Y-104.0
X102.5Y-136.5
X129.52Y-98.0
X129.52Y-82.76
X132.06Y-98.0
X132.06Y-82.76
X132.2Y-72.0
X134.6Y-98.0
X134.6Y-82.76
X137.14Y-98.0
X137.14Y-82.76
X139.68Y-98.0
X139.68Y-82.76
X139.8Y-72.0
X142.22Y-98.0
X142.22Y-82.76
X144.76Y-98.0
X144.76Y-82.76
X147.3Y-98.0
X147.3Y-82.76
X149.84Y-82.76
X152.38Y-98.0
X152.38Y-82.76
X154.92Y-98.0
X154.92Y-82.76
X156.75Y-87.96
X156.75Y-90.5
X156.75Y-93.04
X157.46Y-98.0
X157.46Y-82.76
X160.0Y-98.0
X160.0Y-102.0
X160.0Y-104.0
X160.0Y-82.76
T3
X108.75Y-110.5
X108.75Y-115.5
X108.75Y-127.5
X108.75Y-132.5
X121.25Y-110.5
X121.25Y-115.5
X121.25Y-127.5
X121.25Y-132.5
X127.5Y-110.5
X127.5Y-115.5
X127.5Y-127.5
X127.5Y-132.5
X140.0Y-110.5
X140.0Y-115.5
X140.0Y-127.5
X140.0Y-132.5
X146.25Y-110.5
X146.25Y-115.5
X146.25Y-127.5
X146.25Y-132.5
X150.0Y-63.5
X150.0Y-76.0
X155.0Y-63.5
X155.0Y-76.0
X158.75Y-110.5
X158.75Y-115.5
X158.75Y-127.5
X158.75Y-132.5
M30
