%TF.GenerationSoftware,KiCad,Pcbnew,9.0.5*%
%TF.CreationDate,2025-10-27T12:52:04+01:00*%
%TF.ProjectId,mastermind,6d617374-6572-46d6-996e-642e6b696361,rev?*%
%TF.SameCoordinates,Original*%
%TF.FileFunction,Legend,Bot*%
%TF.FilePolarity,Positive*%
%FSLAX46Y46*%
G04 Gerber Fmt 4.6, Leading zero omitted, Abs format (unit mm)*
G04 Created by KiCad (PCBNEW 9.0.5) date 2025-10-27 12:52:04*
%MOMM*%
%LPD*%
G01*
G04 APERTURE LIST*
%ADD10C,0.150000*%
%ADD11C,0.254000*%
%ADD12C,0.200000*%
%ADD13C,0.120000*%
G04 APERTURE END LIST*
D10*
X157123162Y-96275943D02*
X157123162Y-96847371D01*
X157123162Y-96561657D02*
X158123162Y-96561657D01*
X158123162Y-96561657D02*
X157980305Y-96656895D01*
X157980305Y-96656895D02*
X157885067Y-96752133D01*
X157885067Y-96752133D02*
X157837448Y-96847371D01*
X162354819Y-102666666D02*
X163069104Y-102666666D01*
X163069104Y-102666666D02*
X163211961Y-102619047D01*
X163211961Y-102619047D02*
X163307200Y-102523809D01*
X163307200Y-102523809D02*
X163354819Y-102380952D01*
X163354819Y-102380952D02*
X163354819Y-102285714D01*
X163354819Y-103666666D02*
X163354819Y-103095238D01*
X163354819Y-103380952D02*
X162354819Y-103380952D01*
X162354819Y-103380952D02*
X162497676Y-103285714D01*
X162497676Y-103285714D02*
X162592914Y-103190476D01*
X162592914Y-103190476D02*
X162640533Y-103095238D01*
D11*
%TO.C,U1*%
X161952440Y-94879990D02*
X155452450Y-94879990D01*
X155452450Y-94175520D02*
X155452450Y-94121060D01*
X155452450Y-94884460D02*
X155452450Y-94175520D01*
X155452450Y-86638810D02*
X155452450Y-85880010D01*
X161952440Y-85880010D02*
X155452450Y-85880010D01*
D12*
X161488391Y-81357540D02*
X128150010Y-81357540D01*
X128150010Y-99402441D01*
X161488391Y-99402441D01*
X161488391Y-81357540D01*
D11*
X161952440Y-94830000D02*
X161952440Y-85880010D01*
X161952440Y-94879990D02*
X161952440Y-94830000D01*
X155452450Y-86638810D02*
X155452450Y-85880010D01*
X155452450Y-94175520D02*
X155452450Y-94121060D01*
X155452450Y-94884460D02*
X155452450Y-94175520D01*
X161952440Y-85880010D02*
X155452450Y-85880010D01*
X161952440Y-94830000D02*
X161952440Y-85880010D01*
X161952440Y-94879990D02*
X155452450Y-94879990D01*
X161952440Y-94879990D02*
X161952440Y-94830000D01*
D13*
%TO.C,J1*%
X157090000Y-99940000D02*
X161810000Y-99940000D01*
X157090000Y-106060000D02*
X157090000Y-99940000D01*
X161810000Y-99940000D02*
X161810000Y-106060000D01*
X161810000Y-104300000D02*
X162010000Y-104300000D01*
X161810000Y-106060000D02*
X157090000Y-106060000D01*
X161910000Y-104300000D02*
X161910000Y-104600000D01*
X162010000Y-104300000D02*
X162010000Y-104600000D01*
X162010000Y-104600000D02*
X161810000Y-104600000D01*
X162110000Y-105110000D02*
X162110000Y-106360000D01*
X162110000Y-106360000D02*
X160860000Y-106360000D01*
%TD*%
M02*
